<?xml version="1.0" encoding="UTF-8"?>
<svg id="Layer_1" xmlns="http://www.w3.org/2000/svg" version="1.1" viewBox="0 0 512 512">
  <!-- Generator: Adobe Illustrator 29.8.1, SVG Export Plug-In . SVG Version: 2.1.1 Build 2)  -->
  <defs>
    <style>
      .st0 {
        fill: #231f20;
      }

      .st1 {
        fill: #f37021;
      }
    </style>
  </defs>
  <path class="st1" d="M103.46,204.77c-5.54,0-10.03,4.49-10.03,10.03v4.35c-7.98-8.7-19.7-14.38-32.83-14.38-27.33,0-44.54,22.54-44.54,44.01v6.92c0,21.47,17.22,44.02,44.54,44.02,13.14,0,24.85-5.68,32.83-14.2v36.29c0,5.54,4.49,10.03,10.03,10.03s10.03-4.49,10.03-10.03v-107.02c0-5.54-4.49-10.03-10.03-10.03ZM91.48,253.04c0,14.02-11,28.22-28.22,28.22s-28.22-14.2-28.22-28.22v-1.6c0-14.02,11.18-28.22,28.22-28.22s28.22,14.19,28.22,28.22v1.6Z"/>
  <path class="st1" d="M406.31,173.33c-5.54,0-10.03,4.49-10.03,10.03v36.14c-7.99-8.7-19.7-14.73-32.84-14.73-27.33,0-44.55,23.07-44.55,44.55v3.47c0,21.48,17.22,46.95,44.55,46.95,13.14,0,24.85-5.15,32.84-13.67v3.63c0,5.54,4.49,10.03,10.03,10.03s10.03-4.49,10.03-10.03v-106.34c0-5.54-4.49-10.03-10.03-10.03ZM394.33,253.58c0,14.02-11.18,28.22-28.22,28.22s-28.23-14.2-28.23-28.22v-1.78c0-14.02,11.36-28.22,28.23-28.22s28.22,14.2,28.22,28.22v1.78Z"/>
  <path class="st1" d="M209.44,204.75c-5.54,0-10.03,4.49-10.03,10.03v4.17c-7.99-8.7-19.7-14.2-32.84-14.2-27.34,0-44.56,22.54-44.56,44.02v6.75c0,21.48,17.22,44.2,44.56,44.2,13.14,0,24.86-5.68,32.84-14.2v4.17c0,5.54,4.49,10.03,10.03,10.03s10.03-4.49,10.03-10.03v-74.92c0-5.54-4.49-10.03-10.03-10.03ZM197.47,253.04c0,14.02-11.18,28.22-28.22,28.22s-28.23-14.2-28.23-28.22v-1.78c0-14.02,11.36-28.22,28.23-28.22s28.22,14.2,28.22,28.22v1.78Z"/>
  <path class="st1" d="M300.34,204.76c-5.54,0-10.03,4.49-10.03,10.03v37.05c-.04,11.72-8.19,30.97-23.42,30.97-11.72,0-19.53-9.94-19.53-19.88v-48.49c0-5.34-4.33-9.68-9.68-9.68s-9.68,4.33-9.68,9.68v47.78c0,17.04,10.83,37.45,34.08,37.45,12.95,0,21.47-4.8,28.22-13.48v3.45c0,5.54,4.49,10.03,10.03,10.03s10.03-4.49,10.03-10.03v-74.85c0-5.54-4.49-10.03-10.03-10.03Z"/>
  <path class="st1" d="M476.47,249.95c-7.77-3.71-15.36-7.77-22.94-11.65-4.59-2.29-8.65-5.83-8.65-10.24,0-5.47,5.12-7.59,11.48-7.59,2.52,0,5.15.07,7.55.89,1.97.67,3.57,1.97,4.41,3.9.61,1.39.72,2.93.87,4.43.15,1.54.49,3.07,1.11,4.48.69,1.58,1.76,3.04,3.15,4.07,1.67,1.24,3.72,1.91,5.8,1.91,3.09,0,6.04-1.47,7.92-3.92,1.07-1.4,1.7-3.12,1.94-4.86.2-1.44.14-2.9-.08-4.33-.22-1.41-.46-2.86-.88-4.23-.37-1.23-.84-2.43-1.43-3.58-1.13-2.21-2.65-4.2-4.46-5.9-1.86-1.75-4-3.18-6.27-4.32-2.45-1.23-5.05-2.14-7.71-2.79-2.87-.71-5.81-1.12-8.75-1.32-1.3-.08-2.6-.12-3.9-.12-16.76,0-30.71,8.47-30.71,24.01,0,12.53,4.94,19.41,16.94,25.59,8.47,4.41,16.94,8.65,25.24,13.06,2.64,1.41,3.88,3.18,3.88,5.65,0,6.88-5.12,9-12.88,9-4.61,0-9.28-2.04-11.68-6.11-1.09-1.84-1.35-3.79-1.7-5.87-.23-1.36-.47-2.59-1.08-3.84-.51-1.04-1.19-1.99-2.01-2.79-1.68-1.65-3.94-2.63-6.29-2.73-.15,0-.3,0-.45,0-4.63,0-8.77,3.33-9.75,7.86-.63,2.91-.13,6.03.44,8.91.4,2.04,1.06,4.05,1.94,5.93,1.72,3.69,4.36,6.9,7.58,9.38,3.47,2.68,7.55,4.49,11.78,5.58,3.66.94,7.45,1.35,11.23,1.35,18.36,0,32.83-8.65,32.83-25.77,0-11.12-3.18-18.18-14.47-24.01Z"/>
  <g>
    <path class="st0" d="M367.5,321.65c0-4.53,3.63-9.28,9.39-9.28s9.43,4.75,9.43,9.28v1.46c0,4.53-3.67,9.32-9.43,9.32s-9.39-4.79-9.39-9.32v-1.46ZM382.29,323.15v-1.53c0-2.69-2.13-5.35-5.39-5.35s-5.39,2.66-5.39,5.35v1.53c0,2.7,2.17,5.35,5.39,5.35s5.39-2.66,5.39-5.35Z"/>
    <path class="st0" d="M388.2,321.65c0-4.53,3.63-9.28,9.39-9.28s9.43,4.75,9.43,9.28v1.46c0,4.53-3.67,9.32-9.43,9.32s-9.39-4.79-9.39-9.32v-1.46ZM402.98,323.15v-1.53c0-2.69-2.13-5.35-5.39-5.35s-5.39,2.66-5.39,5.35v1.53c0,2.7,2.17,5.35,5.39,5.35s5.39-2.66,5.39-5.35Z"/>
    <path class="st0" d="M141.46,312.74c-1.17,0-2.11.95-2.11,2.11v.47c-1.68-1.83-4.15-3.03-6.93-3.03-5.76,0-9.39,4.75-9.39,9.28v1.46c0,4.53,3.63,9.32,9.39,9.32,2.77,0,5.24-1.24,6.93-3.03v7.65c0,1.17.95,2.11,2.11,2.11s2.11-.95,2.11-2.11v-22.12c0-1.17-.95-2.11-2.11-2.11ZM138.93,322.47c0,2.96-2.32,5.95-5.95,5.95s-5.95-2.99-5.95-5.95v-.34c0-2.96,2.36-5.95,5.95-5.95s5.95,3,5.95,5.95v.34Z"/>
    <rect class="st0" x="167.06" y="312.3" width="4.23" height="20.13" rx="2.11" ry="2.11"/>
    <path class="st0" d="M270.22,312.29c-1.19,0-2.15.97-2.15,2.16v.87c-1.68-1.79-4.12-2.92-6.85-2.92-5.76,0-9.4,4.75-9.4,9.28v1.42c0,4.53,3.63,9.32,9.4,9.32,2.73,0,5.17-1.17,6.85-2.92v.76c0,1.19.96,2.16,2.15,2.16s2.15-.97,2.15-2.16v-15.81c0-1.19-.96-2.16-2.15-2.16ZM267.73,322.59c0,2.96-2.36,5.95-5.95,5.95s-5.95-2.99-5.95-5.95v-.37c0-2.96,2.4-5.95,5.95-5.95s5.95,2.99,5.95,5.95v.37Z"/>
    <rect class="st0" x="212.54" y="305.63" width="4.23" height="26.8" rx="2.11" ry="2.11"/>
    <path class="st0" d="M161.84,312.3c-1.15,0-2.08.93-2.08,2.08v8.15c0,2.43-1.7,6.41-4.85,6.41-2.43,0-4.04-2.06-4.04-4.12v-10.52c0-1.11-.9-2-2-2s-2,.9-2,2v10.37c0,3.53,2.24,7.75,7.06,7.75,2.68,0,4.44-.99,5.84-2.79v.72c0,1.15.93,2.08,2.08,2.08s2.08-.93,2.08-2.08v-15.98c0-1.15-.93-2.08-2.08-2.08Z"/>
    <path class="st0" d="M314.01,312.3c-1.15,0-2.08.93-2.08,2.08v8.15c0,2.43-1.7,6.41-4.85,6.41-2.43,0-4.04-2.06-4.04-4.12v-10.52c0-1.11-.9-2-2-2s-2,.9-2,2v10.37c0,3.53,2.24,7.75,7.05,7.75,2.68,0,4.44-.99,5.84-2.79v.72c0,1.15.93,2.08,2.08,2.08s2.08-.93,2.08-2.08v-15.97c0-1.15-.93-2.08-2.08-2.08Z"/>
    <circle class="st0" cx="169.18" cy="307.71" r="2.11"/>
    <path class="st0" d="M191.98,327.07c0-1.11-.9-2.01-2.01-2.01-1.35,0-1.88,1.4-2.76,2.17-.93.82-2.11,1.25-3.35,1.28-.06,0-.11,0-.17,0-3.31,0-5.38-2.97-5.38-5.68v-1.02c0-2.79,2.07-5.65,5.46-5.65,1.22,0,2.37.47,3.31,1.22s1.55,2.11,2.86,2.11c.74,0,1.36-.42,1.73-1.05.16-.29.27-.6.27-.95,0-.57-.3-1.01-.62-1.44-1.66-2.22-4.37-3.77-7.6-3.77-5.95,0-9.45,5.16-9.45,9.71v.72c0,4.63,3.5,9.71,9.49,9.71,2.6,0,5.1-1.09,6.87-2.98.61-.65,1.34-1.43,1.34-2.38Z"/>
    <path class="st0" d="M235.24,312.29h-.15c-1.13,0-2.04.91-2.04,2.04,0,0,0,3.57,0,3.58v4.49c0,2.47-1.72,6.55-4.94,6.55-2.43,0-4.12-2.1-4.12-4.19v-10.42c0-1.13-.91-2.04-2.04-2.04s-2.04.91-2.04,2.04v10.27c0,3.59,2.28,7.9,7.19,7.9,2.73,0,4.53-1.01,5.95-2.84v3.59c0,1.65-1.76,2.77-3.67,2.77-.76,0-1.53-.19-2.26-.42-.4-.12-.79-.26-1.17-.41-.55-.22-1.12-.57-1.73-.57-1.05,0-1.9.85-1.9,1.9,0,.38.12.76.35,1.07.48.67,1.33.93,2.08,1.19.83.29,1.69.5,2.56.64.81.13,1.62.19,2.44.19,3.03,0,5.58-1.2,6.85-3.63.41-.79.67-1.65.67-2.54v-19.11c0-1.13-.91-2.04-2.04-2.04Z"/>
    <path class="st0" d="M331.85,313.33c-.34-.42-.94-.69-1.45-.83-.5-.14-1.03-.16-1.55-.16-2.28,0-3.89,1.27-4.98,2.84v-.53s0,0,0,0v-.23c0-1.17-.95-2.11-2.11-2.11s-2.11.95-2.11,2.11v15.9c0,1.17.95,2.11,2.11,2.11s2.11-.95,2.11-2.11v-1.17s0,0,0,0v-5.69c0-3.15.9-7.34,5.17-7.34.73,0,1.45.28,2.15-.06.52-.26.92-.75,1.02-1.33.02-.1.02-.19.02-.29,0-.4-.14-.79-.39-1.1Z"/>
    <path class="st0" d="M421.4,313.33c-.34-.42-.94-.69-1.45-.83-.5-.14-1.03-.16-1.55-.16-2.28,0-3.89,1.27-4.98,2.84v-.53s0,0,0,0v-.23c0-1.17-.95-2.11-2.11-2.11s-2.11.95-2.11,2.11v15.9c0,1.17.95,2.11,2.11,2.11s2.11-.95,2.11-2.11v-1.17s0,0,0,0v-5.69c0-3.15.9-7.34,5.17-7.34.73,0,1.45.28,2.15-.06.52-.26.92-.75,1.02-1.33.02-.1.02-.19.02-.29,0-.4-.14-.79-.39-1.1Z"/>
    <path class="st0" d="M209.81,312.74c0-.26-.19-.56-.6-.56h-2.92c-.49,0-.86.15-1.16.45l-6.13,6.81v-11.69c0-1.17-.95-2.11-2.11-2.11s-2.11.95-2.11,2.11v22.57c0,1.17.95,2.11,2.11,2.11s2.11-.95,2.11-2.11v-5.65l2.07-2.07,3.63,5.05c.23.32.4.66.54,1.03s.21.72.27,1.09c.05.38.04.77.15,1.14.08.29.23.55.42.78s.43.41.7.54.58.2.91.21c.77,0,1.5-.44,1.86-1.11.24-.45.26-.92.21-1.42s-.13-.95-.26-1.42c-.21-.77-.55-1.5-1.01-2.14l-4.69-6.69,5.83-6.49c.11-.11.19-.22.19-.41Z"/>
    <path class="st0" d="M285.73,330.27c0-.96-.68-1.73-1.58-1.94-.09-.05-.19-.08-.32-.08-.04,0-.07,0-.14-.01-1.53-.06-2.56-1-2.56-2.42v-9.9h1.56c.99,0,1.79-.8,1.79-1.79s-.8-1.79-1.79-1.79h-1.56v-3.02c0-1.17-.95-2.11-2.11-2.11s-2.11.95-2.11,2.11v3.02h-.84c-.99,0-1.79.8-1.79,1.79s.8,1.79,1.79,1.79c0,0,.84,0,.84,0v10.31c0,.54.07,1.08.22,1.6s.35,1.01.63,1.47.62.89,1.01,1.26.86.71,1.36.97c.53.28,1.09.48,1.67.6.52.11,1.07.17,1.6.17.68-.01,1.37-.2,1.84-.72.32-.36.51-.83.51-1.31Z"/>
    <path class="st0" d="M449.17,330.27c0-.96-.68-1.73-1.58-1.94-.09-.05-.19-.08-.32-.08-.04,0-.07,0-.14-.01-1.53-.06-2.56-1-2.56-2.42v-9.9h1.56c.99,0,1.79-.8,1.79-1.79s-.8-1.79-1.79-1.79h-1.56v-3.02c0-1.17-.95-2.11-2.11-2.11s-2.11.95-2.11,2.11v3.02h-.84c-.99,0-1.79.8-1.79,1.79s.8,1.79,1.79,1.79c0,0,.84,0,.84,0v10.31c0,.54.07,1.08.22,1.6s.35,1.01.63,1.47.62.89,1.01,1.26.86.71,1.36.97c.53.28,1.09.48,1.67.6.52.11,1.07.17,1.6.17.68-.01,1.37-.2,1.84-.72.32-.36.51-.83.51-1.31Z"/>
    <path class="st0" d="M363.23,305.67c-1.17,0-2.12.95-2.12,2.12v7.65c-1.69-1.84-4.17-3.12-6.95-3.12-5.79,0-9.43,4.89-9.43,9.43v.73c0,4.55,3.65,9.94,9.43,9.94,2.78,0,5.26-1.09,6.95-2.89v.77c0,1.17.95,2.12,2.12,2.12s2.12-.95,2.12-2.12v-22.51c0-1.17-.95-2.12-2.12-2.12ZM360.69,322.66c0,2.97-2.37,5.97-5.97,5.97s-5.98-3.01-5.98-5.97v-.38c0-2.97,2.41-5.97,5.98-5.97s5.97,3.01,5.97,5.97v.38Z"/>
    <path class="st0" d="M472.47,339.06c1.17,0,2.12-.95,2.12-2.12v-7.65c1.69,1.84,4.17,3.12,6.95,3.12,5.79,0,9.43-4.89,9.43-9.43v-.73c0-4.55-3.65-9.94-9.43-9.94-2.78,0-5.26,1.09-6.95,2.89v-.77c0-1.17-.95-2.12-2.12-2.12s-2.12.95-2.12,2.12v22.51c0,1.17.95,2.12,2.12,2.12ZM475.01,322.07c0-2.97,2.37-5.97,5.97-5.97s5.98,3.01,5.98,5.97v.38c0,2.97-2.41,5.97-5.98,5.97s-5.97-3.01-5.97-5.97v-.38Z"/>
    <path class="st0" d="M433.98,321.88c-1.65-.79-3.25-1.65-4.86-2.47-.97-.49-1.83-1.24-1.83-2.17,0-1.16,1.08-1.61,2.43-1.61.53,0,1.09.01,1.6.19.42.14.76.42.94.83.13.29.15.62.18.94s.1.65.24.95c.15.34.37.64.67.86.35.26.79.41,1.23.41.65,0,1.28-.31,1.68-.83.23-.3.36-.66.41-1.03.04-.3.03-.62-.02-.92s-.1-.61-.19-.9c-.08-.26-.18-.52-.3-.76-.24-.47-.56-.89-.94-1.25s-.85-.67-1.33-.92c-.52-.26-1.07-.45-1.63-.59-.61-.15-1.23-.24-1.86-.28-.27-.02-.55-.03-.83-.03-3.55,0-6.51,1.8-6.51,5.09,0,2.65,1.05,4.11,3.59,5.42,1.8.94,3.59,1.83,5.35,2.77.56.3.82.67.82,1.2,0,1.46-1.08,1.91-2.73,1.91-.98,0-1.97-.43-2.48-1.29-.23-.39-.29-.8-.36-1.24-.05-.29-.1-.55-.23-.81-.11-.22-.25-.42-.43-.59-.36-.35-.83-.56-1.33-.58-.03,0-.06,0-.09,0-.98,0-1.86.7-2.07,1.67-.13.62-.03,1.28.09,1.89.09.43.22.86.41,1.26.37.78.92,1.46,1.61,1.99.74.57,1.6.95,2.5,1.18.78.2,1.58.29,2.38.29,3.89,0,6.96-1.83,6.96-5.46,0-2.36-.67-3.85-3.07-5.09Z"/>
    <path class="st0" d="M467.21,318.06c-1.46-3.63-4.71-5.73-9.24-5.73-5.5,0-8.72,5.61-8.72,9.66v.79c0,4.6,3.48,9.66,9.43,9.66,2.9,0,5.84-1.44,7.55-3.82.51-.71.84-1.55.45-2.39-.33-.69-1.04-1.14-1.8-1.14-1.37,0-1.85,1.35-2.74,2.15-.98.87-2.22,1.3-3.52,1.3-3.14,0-5.24-2.54-5.35-5.13h13.59c.64,0,.86-.49.97-.9.07-.37.07-.68.07-1.05,0-1.16-.23-2.36-.68-3.41ZM453.51,320.23c.37-2.4,2.32-4.12,5.2-4.12s4.64,1.83,4.94,4.12h-10.14Z"/>
  </g>
  <path class="st0" d="M268.13,148.17c-64.77,0-123.05,19.22-163.65,49.87,7.04.42,12.91,5.16,14.99,11.62,43.16-30.64,104.71-49.82,173.03-49.82,35.56,0,69.28,5.2,99.54,14.5-35.4-16.52-78.03-26.16-123.91-26.16Z"/>
</svg>